<svg width="40" height="37" viewBox="0 0 40 37" fill="none" xmlns="http://www.w3.org/2000/svg">
<mask id="path-1-outside-1_74_1315" maskUnits="userSpaceOnUse" x="0" y="9.66406" width="40" height="27" fill="black">
<rect fill="white" y="9.66406" width="40" height="27"/>
<path d="M29.3379 11.6641C34.0607 11.6641 37.8896 15.493 37.8896 20.2158C37.8895 24.9385 34.0606 28.7666 29.3379 28.7666H12.7402L8.74805 32.2227V28.5752C4.89146 27.7472 2.00013 24.3198 2 20.2158C2 15.493 5.82891 11.6641 10.5518 11.6641H29.3379Z"/>
</mask>
<path d="M29.3379 11.6641C34.0607 11.6641 37.8896 15.493 37.8896 20.2158C37.8895 24.9385 34.0606 28.7666 29.3379 28.7666H12.7402L8.74805 32.2227V28.5752C4.89146 27.7472 2.00013 24.3198 2 20.2158C2 15.493 5.82891 11.6641 10.5518 11.6641H29.3379Z" fill="white"/>
<path d="M37.8896 20.2158L39.8896 20.2159V20.2158H37.8896ZM12.7402 28.7666V26.7666H11.9948L11.4312 27.2545L12.7402 28.7666ZM8.74805 32.2227H6.74805V36.5994L10.0571 33.7348L8.74805 32.2227ZM8.74805 28.5752H10.748V26.959L9.16788 26.6198L8.74805 28.5752ZM2 20.2158H0V20.2159L2 20.2158ZM29.3379 11.6641V13.6641C32.9562 13.6641 35.8896 16.5975 35.8896 20.2158H37.8896H39.8896C39.8896 14.3884 35.1653 9.66406 29.3379 9.66406V11.6641ZM37.8896 20.2158L35.8896 20.2158C35.8895 23.8337 32.9563 26.7666 29.3379 26.7666V28.7666V30.7666C35.165 30.7666 39.8895 26.0434 39.8896 20.2159L37.8896 20.2158ZM29.3379 28.7666V26.7666H12.7402V28.7666V30.7666H29.3379V28.7666ZM12.7402 28.7666L11.4312 27.2545L7.43902 30.7106L8.74805 32.2227L10.0571 33.7348L14.0493 30.2787L12.7402 28.7666ZM8.74805 32.2227H10.748V28.5752H8.74805H6.74805V32.2227H8.74805ZM8.74805 28.5752L9.16788 26.6198C6.2134 25.9854 4.0001 23.357 4 20.2158L2 20.2158L0 20.2159C0.000162005 25.2825 3.56952 29.5089 8.32821 30.5306L8.74805 28.5752ZM2 20.2158H4C4 16.5975 6.93348 13.6641 10.5518 13.6641V11.6641V9.66406C4.72434 9.66406 0 14.3884 0 20.2158H2ZM10.5518 11.6641V13.6641H29.3379V11.6641V9.66406H10.5518V11.6641Z" fill="#A40063" mask="url(#path-1-outside-1_74_1315)"/>
<mask id="path-3-inside-2_74_1315" fill="white">
<path d="M11.5961 14.8425C13.5781 14.8425 15.1848 16.4494 15.185 18.4314C15.185 20.4135 13.5783 22.0203 11.5961 22.0203C9.61406 22.0202 8.00726 20.4135 8.00726 18.4314C8.00744 16.4495 9.61417 14.8426 11.5961 14.8425ZM28.1674 14.8425C30.1495 14.8425 31.7562 16.4493 31.7563 18.4314C31.7563 20.4135 30.1495 22.0203 28.1674 22.0203C26.1853 22.0202 24.5786 20.4135 24.5786 18.4314C24.5786 16.4493 26.1853 14.8426 28.1674 14.8425Z"/>
</mask>
<path d="M11.5961 14.8425C13.5781 14.8425 15.1848 16.4494 15.185 18.4314C15.185 20.4135 13.5783 22.0203 11.5961 22.0203C9.61406 22.0202 8.00726 20.4135 8.00726 18.4314C8.00744 16.4495 9.61417 14.8426 11.5961 14.8425ZM28.1674 14.8425C30.1495 14.8425 31.7562 16.4493 31.7563 18.4314C31.7563 20.4135 30.1495 22.0203 28.1674 22.0203C26.1853 22.0202 24.5786 20.4135 24.5786 18.4314C24.5786 16.4493 26.1853 14.8426 28.1674 14.8425Z" fill="white"/>
<path d="M11.5961 14.8425V12.8425H11.5961L11.5961 14.8425ZM15.185 18.4314H17.185V18.4312L15.185 18.4314ZM11.5961 22.0203L11.5961 24.0203H11.5961V22.0203ZM8.00726 18.4314L6.00726 18.4312V18.4314H8.00726ZM28.1674 14.8425V12.8425H28.1674L28.1674 14.8425ZM31.7563 18.4314H33.7563V18.4314L31.7563 18.4314ZM28.1674 22.0203L28.1674 24.0203H28.1674V22.0203ZM24.5786 18.4314L22.5786 18.4314V18.4314H24.5786ZM11.5961 14.8425V16.8425C12.4734 16.8425 13.1849 17.5538 13.185 18.4316L15.185 18.4314L17.185 18.4312C17.1847 15.345 14.6829 12.8425 11.5961 12.8425V14.8425ZM15.185 18.4314H13.185C13.185 19.309 12.4737 20.0203 11.5961 20.0203V22.0203V24.0203C14.6828 24.0203 17.185 21.5181 17.185 18.4314H15.185ZM11.5961 22.0203L11.5962 20.0203C10.7186 20.0202 10.0073 19.3088 10.0073 18.4314H8.00726H6.00726C6.00726 21.5181 8.50954 24.0202 11.5961 24.0203L11.5961 22.0203ZM8.00726 18.4314L10.0073 18.4316C10.0073 17.554 10.7189 16.8426 11.5962 16.8425L11.5961 14.8425L11.5961 12.8425C8.50947 12.8426 6.00754 15.345 6.00726 18.4312L8.00726 18.4314ZM28.1674 14.8425V16.8425C29.0449 16.8425 29.7563 17.5538 29.7563 18.4314L31.7563 18.4314L33.7563 18.4314C33.7562 15.3448 31.2541 12.8425 28.1674 12.8425V14.8425ZM31.7563 18.4314H29.7563C29.7563 19.309 29.045 20.0203 28.1674 20.0203V22.0203V24.0203C31.2541 24.0203 33.7563 21.5181 33.7563 18.4314H31.7563ZM28.1674 22.0203L28.1675 20.0203C27.2899 20.0202 26.5786 19.3089 26.5786 18.4314H24.5786H22.5786C22.5786 21.5181 25.0808 24.0202 28.1674 24.0203L28.1674 22.0203ZM24.5786 18.4314L26.5786 18.4314C26.5786 17.5539 27.2899 16.8425 28.1675 16.8425L28.1674 14.8425L28.1674 12.8425C25.0808 12.8426 22.5786 15.3447 22.5786 18.4314L24.5786 18.4314Z" fill="#A40063" mask="url(#path-3-inside-2_74_1315)"/>
<path d="M9.79681 0.649414C11.4203 -0.487333 13.6578 -0.092835 14.7949 1.53027C15.7895 2.95082 15.6121 4.84154 14.4648 6.05371L16.8388 9.44531C17.0826 9.79365 16.9985 10.2736 16.6503 10.5176C16.3019 10.7613 15.821 10.6764 15.5771 10.3281L13.1904 6.91895C11.6771 7.52709 9.89165 7.0408 8.91595 5.64746C7.77935 4.02392 8.17348 1.78632 9.79681 0.649414ZM25.4609 1.53027C26.5978 -0.0929082 28.8354 -0.487167 30.4589 0.649414C32.0824 1.78621 32.4773 4.02383 31.3408 5.64746C30.3461 7.06796 28.5089 7.54728 26.9775 6.88379L24.6025 10.2754C24.3585 10.6235 23.8785 10.7086 23.5302 10.4648C23.1819 10.2209 23.0969 9.74001 23.3408 9.3916L25.7285 5.98242C24.6394 4.76838 24.4852 2.9237 25.4609 1.53027Z" fill="#A40063"/>
<rect x="14.7847" y="23.9099" width="10.4742" height="2.61856" rx="1.30928" fill="#2453CA"/>
</svg>
